<?xml version="1.0" encoding="utf-8"?>
<!-- Generator: Adobe Illustrator 26.0.3, SVG Export Plug-In . SVG Version: 6.00 Build 0)  -->
<svg version="1.1" id="Layer_1" xmlns="http://www.w3.org/2000/svg" xmlns:xlink="http://www.w3.org/1999/xlink" x="0px" y="0px"
	 viewBox="0 0 150 134.8" style="enable-background:new 0 0 150 134.8;" xml:space="preserve">
<style type="text/css">
	.st0{fill:#ED0BFF;}
</style>
<g>
	<path class="st0" d="M150,26.1c-3.4,7.9-8.9,14.4-14.3,21C123.4,62.4,110.2,76.8,96.6,91c-0.2,0.2-0.4,0.5-0.5,0.6
		c-5.8-5.5-11.4-11-16.8-16.2c1.4-1.6,2.8-3.3,4.3-4.7c14.6-13.7,29.5-27,45.4-39.2c4-3.1,8.3-5.7,12.5-8.5c0.7-0.5,1.6-0.8,2.4-1.1
		c2.9-1.1,4.7-0.4,6.1,2.3C150,24.7,150,25.4,150,26.1z"/>
	<path class="st0" d="M110.3,37c-4.4,3.8-8.7,7.5-13.1,11.3c-0.6-2.8-2-5-4.3-6.4c-1.8-1.1-3.8-1.6-5.9-1.4
		c-4.2,0.3-7.7,3.5-8.4,7.6c-0.8,4.5,1.5,8,7.1,10.5c-0.2,0.3-0.4,0.5-0.6,0.7c-4.4,4.2-8.9,8.4-13.3,12.6c-0.5,0.5-1.2,0.9-1.8,1.1
		c-12.5,2.7-19.5,10.7-22.1,22.8c-0.4,2.1-0.9,4.1-1.4,6.2c-0.1,0.5-0.7,1.1-1.1,1.2c-4.9,1.3-7.8,4.6-8.1,9.5
		c-0.2,4.2,2.5,8.2,7,9.8c9.5,3.4,19.3,4.9,29.3,2.5c10.7-2.6,18-9.1,22.4-19c0.3-0.7,0.7-1.3,0.8-2c0.6-2.9,2.5-5,4.5-7
		c4.6-4.7,9.1-9.5,13.6-14.3c0.5-0.5,0.9-1,1.7-1.3c-0.4,1.5-0.6,2.9-1.1,4.4c-8.3,25.4-25.6,41.3-52.1,46.9
		c-19.4,4.1-37-0.8-52.4-12.9c-5.7-4.5-9.7-10.3-10.5-17.7c-1-8.3,1.8-15.1,8.4-20.4c2.4-1.9,4.9-3.7,7.2-5.6
		c5.6-4.8,5.6-11.9,0-16.7c-3-2.6-6.3-4.8-9.1-7.4c-6.5-6-8.5-16-5.1-24.2c2.6-6.2,7-11,12.5-14.7c10.1-7.6,21.8-11.9,34.5-12
		c23-0.2,41.6,9,55.7,27c1.4,1.8,2.6,3.8,3.9,5.8C109.1,34.8,109.7,35.8,110.3,37z M60.5,39.7c5.2-0.1,9.3-4.1,9.3-9.2
		c-0.1-5.1-4.3-9.1-9.4-9c-5.2,0.1-9.4,4.2-9.3,9.2C51.1,35.7,55.3,39.7,60.5,39.7z M37.5,39.7c0-5.1-4.2-9.2-9.4-9.2
		c-5.1,0-9.3,4.1-9.3,9.2c0,5,4.2,9.1,9.4,9.1C33.3,48.8,37.5,44.7,37.5,39.7z M31.6,107.7c5.2,0,9.4-4,9.4-9c0-5.1-4.2-9.2-9.4-9.2
		s-9.3,4-9.3,9.1S26.4,107.7,31.6,107.7z"/>
	<path class="st0" d="M61.8,118.5c-4.6-0.1-9.8-1.2-14.8-3c-1.9-0.7-2.6-1.6-2.5-3.1c0.1-1.4,1-2.2,2.9-2.5c3-0.4,4.8-2,5.6-4.8
		c1-3.5,1.7-7.1,2.7-10.6c2.3-8.5,8-13.2,16.6-14.8c0.4-0.1,1.1,0.1,1.4,0.4c5.6,5.5,11.1,11,16.6,16.5c0.3,0.3,0.4,1,0.3,1.5
		C87.1,111.6,76.5,119.3,61.8,118.5z"/>
</g>
</svg>
